<svg width="630" height="397" viewBox="0 0 630 397" fill="none" xmlns="http://www.w3.org/2000/svg">
<g opacity="0.75">
<path d="M282.903 246.573L309.687 200.137C310.86 198.1 311.476 195.79 311.474 193.439C311.472 191.088 310.853 188.779 309.678 186.742L282.46 140.056C281.284 138.018 279.593 136.325 277.556 135.148C275.519 133.971 273.209 133.351 270.858 133.351L216.856 133.1C214.507 133.1 212.199 133.717 210.164 134.891C208.129 136.065 206.439 137.754 205.263 139.789L178.479 186.225C177.307 188.262 176.69 190.572 176.692 192.923C176.694 195.274 177.313 197.583 178.488 199.619L205.706 246.306C206.882 248.344 208.573 250.037 210.61 251.214C212.647 252.391 214.957 253.011 217.308 253.011L271.31 253.262C273.659 253.262 275.967 252.645 278.002 251.47C280.037 250.296 281.727 248.607 282.903 246.573Z" fill="white" stroke="#2E4D65" stroke-linecap="round" stroke-linejoin="round"/>
<path d="M210.317 134.661L244.052 193.234L311.598 193.19" stroke="#2E4D65" stroke-linecap="round" stroke-linejoin="round"/>
<path d="M210.328 251.696L244.084 193.178" stroke="#2E4D65" stroke-linecap="round" stroke-linejoin="round"/>
</g>
<g opacity="0.75">
<path d="M427.18 304.283L453.964 257.847C455.136 255.81 455.753 253.5 455.751 251.149C455.749 248.798 455.13 246.489 453.955 244.452L426.737 197.766C425.561 195.728 423.87 194.035 421.833 192.858C419.796 191.681 417.486 191.061 415.135 191.06L361.133 190.81C358.784 190.809 356.476 191.427 354.441 192.601C352.406 193.775 350.716 195.464 349.54 197.499L322.756 243.935C321.584 245.972 320.967 248.282 320.969 250.633C320.971 252.984 321.59 255.293 322.765 257.329L349.983 304.016C351.159 306.054 352.85 307.747 354.887 308.924C356.924 310.101 359.234 310.721 361.585 310.721L415.587 310.972C417.936 310.972 420.244 310.354 422.279 309.18C424.314 308.006 426.004 306.317 427.18 304.283Z" fill="white" stroke="#2E4D65" stroke-linecap="round" stroke-linejoin="round"/>
<path d="M354.594 192.371L388.329 250.944L455.875 250.9" stroke="#2E4D65" stroke-linecap="round" stroke-linejoin="round"/>
<path d="M354.605 309.406L388.361 250.888" stroke="#2E4D65" stroke-linecap="round" stroke-linejoin="round"/>
</g>
<g opacity="0.5">
<path d="M467.862 66.3509L429.974 28.4305C428.311 26.7698 426.241 25.5759 423.972 24.9685C421.702 24.3612 419.313 24.3618 417.044 24.9703L364.948 39.1904C362.677 39.7995 360.606 40.9963 358.943 42.6604C357.281 44.3245 356.085 46.3973 355.476 48.6705L341.268 100.811C340.66 103.082 340.66 105.473 341.266 107.744C341.873 110.015 343.066 112.087 344.725 113.751L382.614 151.672C384.276 153.332 386.346 154.526 388.616 155.134C390.885 155.741 393.274 155.74 395.543 155.132L447.639 140.912C449.91 140.303 451.981 139.106 453.644 137.442C455.307 135.778 456.502 133.705 457.111 131.432L471.319 79.2912C471.927 77.0202 471.928 74.6292 471.321 72.3579C470.714 70.0866 469.521 68.015 467.862 66.3509Z" fill="white" stroke="#2E4D65" stroke-linecap="round" stroke-linejoin="round"/>
<path d="M341.079 107.545L406.341 90.1013L423.769 24.7835" stroke="#2E4D65" stroke-linecap="round" stroke-linejoin="round"/>
<path d="M454.031 137.828L406.292 90.0481" stroke="#2E4D65" stroke-linecap="round" stroke-linejoin="round"/>
</g>
<g opacity="0.5">
<path d="M609.646 150.668L582.862 104.232C581.685 102.197 579.995 100.508 577.96 99.3341C575.925 98.1601 573.617 97.5423 571.268 97.5427L517.267 97.7933C514.915 97.7937 512.605 98.4136 510.568 99.5906C508.531 100.768 506.84 102.46 505.664 104.499L478.446 151.185C477.271 153.221 476.652 155.531 476.65 157.882C476.649 160.233 477.265 162.543 478.437 164.58L505.221 211.016C506.397 213.05 508.088 214.739 510.122 215.913C512.157 217.087 514.465 217.705 516.814 217.705L570.816 217.454C573.167 217.454 575.478 216.834 577.514 215.657C579.551 214.48 581.243 212.787 582.419 210.749L609.636 164.062C610.811 162.026 611.431 159.717 611.432 157.366C611.434 155.015 610.818 152.705 609.646 150.668Z" fill="white" stroke="#2E4D65" stroke-linecap="round" stroke-linejoin="round"/>
<path d="M476.526 157.636L544.072 157.68L577.807 99.1068" stroke="#2E4D65" stroke-linecap="round" stroke-linejoin="round"/>
<path d="M577.797 216.138L544.041 157.621" stroke="#2E4D65" stroke-linecap="round" stroke-linejoin="round"/>
</g>
<path d="M121.559 355.241V301.614C121.557 299.263 120.937 296.954 119.761 294.918C118.586 292.883 116.896 291.193 114.861 290.017L67.9773 263.203C65.941 262.027 63.631 261.407 61.2796 261.407C58.9282 261.407 56.6182 262.027 54.5819 263.203L7.69773 290.017C5.66338 291.193 3.97366 292.883 2.79808 294.918C1.62251 296.954 1.00241 299.263 1 301.614V355.241C1.00241 357.592 1.62251 359.902 2.79808 361.937C3.97366 363.972 5.66338 365.663 7.69773 366.838L54.5819 393.652C56.6182 394.829 58.9282 395.448 61.2796 395.448C63.631 395.448 65.941 394.829 67.9773 393.652L114.861 366.838C116.896 365.663 118.586 363.972 119.761 361.937C120.937 359.902 121.557 357.592 121.559 355.241Z" fill="#D4EADD" stroke="#2E4D65" stroke-linecap="round" stroke-linejoin="round"/>
<path d="M2.80884 294.643L61.28 328.496L119.751 294.643" stroke="#2E4D65" stroke-linecap="round" stroke-linejoin="round"/>
<path d="M61.2796 396V328.429" stroke="#2E4D65" stroke-linecap="round" stroke-linejoin="round"/>
</svg>
